<mxfile host="app.diagrams.net" agent="Mozilla/5.0 (Windows NT 10.0; Win64; x64) AppleWebKit/537.36 (KHTML, like Gecko) Chrome/131.0.0.0 Safari/537.36" version="24.8.6">
  <diagram name="Σελίδα-1" id="woWFtWeUt2cK5ZepEzBc">
    <mxGraphModel dx="1687" dy="868" grid="1" gridSize="10" guides="1" tooltips="1" connect="1" arrows="1" fold="1" page="1" pageScale="1" pageWidth="827" pageHeight="1169" math="0" shadow="0">
      <root>
        <mxCell id="0" />
        <mxCell id="1" parent="0" />
        <mxCell id="2lP4dWBcIdroYwDRo1nt-4" value="&lt;div&gt;&lt;br&gt;&lt;/div&gt;&lt;font color=&quot;#ff7661&quot;&gt;&amp;nbsp; &amp;nbsp;Module Counter #1&amp;nbsp; &amp;nbsp; &amp;nbsp; &amp;nbsp; &amp;nbsp; &amp;nbsp; &amp;nbsp; &amp;nbsp; &amp;nbsp; &amp;nbsp; &amp;nbsp; &amp;nbsp; &amp;nbsp; &amp;nbsp; &amp;nbsp; &amp;nbsp; &amp;nbsp; &amp;nbsp; &amp;nbsp; &amp;nbsp; &amp;nbsp; &amp;nbsp; &amp;nbsp; &amp;nbsp; &amp;nbsp; &amp;nbsp;&lt;/font&gt;&lt;div&gt;&lt;br&gt;&lt;/div&gt;&lt;div&gt;&lt;br&gt;&lt;/div&gt;&lt;div&gt;&lt;br&gt;&lt;/div&gt;&lt;div&gt;&lt;br&gt;&lt;/div&gt;&lt;div&gt;&lt;br&gt;&lt;/div&gt;&lt;div&gt;&lt;br&gt;&lt;/div&gt;&lt;div&gt;&lt;br&gt;&lt;/div&gt;&lt;div&gt;&lt;br&gt;&lt;/div&gt;&lt;div&gt;&lt;br&gt;&lt;/div&gt;&lt;div&gt;&lt;br&gt;&lt;/div&gt;&lt;div&gt;&lt;br&gt;&lt;/div&gt;&lt;div&gt;&lt;br&gt;&lt;/div&gt;&lt;div&gt;&lt;br&gt;&lt;/div&gt;&lt;div&gt;&lt;br&gt;&lt;/div&gt;" style="whiteSpace=wrap;html=1;aspect=fixed;" parent="1" vertex="1">
          <mxGeometry x="35" y="910" width="230" height="230" as="geometry" />
        </mxCell>
        <mxCell id="2lP4dWBcIdroYwDRo1nt-8" value="reset_sync" style="text;html=1;align=center;verticalAlign=middle;resizable=0;points=[];autosize=1;strokeColor=none;fillColor=none;fontSize=7;" parent="1" vertex="1">
          <mxGeometry x="30" y="1005" width="60" height="20" as="geometry" />
        </mxCell>
        <mxCell id="2lP4dWBcIdroYwDRo1nt-82" style="edgeStyle=orthogonalEdgeStyle;rounded=0;orthogonalLoop=1;jettySize=auto;html=1;exitX=1;exitY=0.5;exitDx=0;exitDy=0;endArrow=none;endFill=0;" parent="1" source="2lP4dWBcIdroYwDRo1nt-4" edge="1">
          <mxGeometry relative="1" as="geometry">
            <mxPoint x="200" y="1049.9999999999998" as="targetPoint" />
            <Array as="points">
              <mxPoint x="240" y="1025" />
              <mxPoint x="240" y="1050" />
            </Array>
          </mxGeometry>
        </mxCell>
        <mxCell id="2lP4dWBcIdroYwDRo1nt-83" value="" style="verticalLabelPosition=bottom;shadow=0;dashed=0;align=center;html=1;verticalAlign=top;shape=mxgraph.electrical.logic_gates.buffer2;direction=north;movable=1;resizable=1;rotatable=1;deletable=1;editable=1;locked=0;connectable=1;" parent="1" vertex="1">
          <mxGeometry x="145" y="1120" width="15" height="25" as="geometry" />
        </mxCell>
        <mxCell id="2lP4dWBcIdroYwDRo1nt-84" style="edgeStyle=orthogonalEdgeStyle;rounded=0;orthogonalLoop=1;jettySize=auto;html=1;exitX=0;exitY=0.5;exitDx=0;exitDy=0;entryX=0;entryY=0.5;entryDx=0;entryDy=0;endArrow=none;endFill=0;" parent="1" source="2lP4dWBcIdroYwDRo1nt-86" target="2lP4dWBcIdroYwDRo1nt-89" edge="1">
          <mxGeometry relative="1" as="geometry" />
        </mxCell>
        <mxCell id="2lP4dWBcIdroYwDRo1nt-85" style="edgeStyle=orthogonalEdgeStyle;rounded=0;orthogonalLoop=1;jettySize=auto;html=1;exitX=1;exitY=0.5;exitDx=0;exitDy=0;entryX=1;entryY=0.5;entryDx=0;entryDy=0;endArrow=none;endFill=0;" parent="1" source="2lP4dWBcIdroYwDRo1nt-86" target="2lP4dWBcIdroYwDRo1nt-89" edge="1">
          <mxGeometry relative="1" as="geometry">
            <Array as="points">
              <mxPoint x="200" y="1050" />
              <mxPoint x="200" y="990" />
            </Array>
          </mxGeometry>
        </mxCell>
        <mxCell id="2lP4dWBcIdroYwDRo1nt-86" value="&lt;font style=&quot;font-size: 10px;&quot;&gt;D&lt;/font&gt;&lt;font style=&quot;&quot;&gt;&lt;span style=&quot;font-size: 11px;&quot;&gt;&amp;nbsp; &amp;nbsp; &amp;nbsp; &lt;/span&gt;&lt;font style=&quot;font-size: 10px;&quot;&gt;&amp;nbsp;Q&lt;/font&gt;&lt;/font&gt;" style="rounded=0;whiteSpace=wrap;html=1;movable=1;resizable=1;rotatable=1;deletable=1;editable=1;locked=0;connectable=1;" parent="1" vertex="1">
          <mxGeometry x="132.5" y="1025" width="40" height="50" as="geometry" />
        </mxCell>
        <mxCell id="2lP4dWBcIdroYwDRo1nt-87" value="" style="verticalLabelPosition=bottom;shadow=0;dashed=0;align=center;html=1;verticalAlign=top;shape=mxgraph.electrical.logic_gates.buffer2;direction=north;movable=1;resizable=1;rotatable=1;deletable=1;editable=1;locked=0;connectable=1;" parent="1" vertex="1">
          <mxGeometry x="150" y="1065" width="5" height="15" as="geometry" />
        </mxCell>
        <mxCell id="2lP4dWBcIdroYwDRo1nt-88" style="edgeStyle=orthogonalEdgeStyle;rounded=0;orthogonalLoop=1;jettySize=auto;html=1;exitX=1;exitY=0.75;exitDx=0;exitDy=0;endArrow=none;endFill=0;" parent="1" edge="1">
          <mxGeometry relative="1" as="geometry">
            <mxPoint x="210" y="979.96" as="targetPoint" />
            <mxPoint x="172.5" y="979.76" as="sourcePoint" />
            <Array as="points">
              <mxPoint x="190" y="979.76" />
              <mxPoint x="190" y="979.76" />
            </Array>
          </mxGeometry>
        </mxCell>
        <mxCell id="2lP4dWBcIdroYwDRo1nt-89" value="half&lt;br&gt;adder" style="whiteSpace=wrap;html=1;aspect=fixed;" parent="1" vertex="1">
          <mxGeometry x="132.5" y="970" width="40" height="40" as="geometry" />
        </mxCell>
        <mxCell id="2lP4dWBcIdroYwDRo1nt-90" value="&lt;font style=&quot;font-size: 12px;&quot;&gt;r&lt;/font&gt;" style="text;html=1;align=center;verticalAlign=middle;resizable=0;points=[];autosize=1;strokeColor=none;fillColor=none;strokeWidth=7;" parent="1" vertex="1">
          <mxGeometry x="125" y="1050" width="30" height="30" as="geometry" />
        </mxCell>
        <mxCell id="2lP4dWBcIdroYwDRo1nt-91" style="edgeStyle=orthogonalEdgeStyle;rounded=0;orthogonalLoop=1;jettySize=auto;html=1;exitX=1;exitY=0.5;exitDx=0;exitDy=0;entryX=0.916;entryY=0.943;entryDx=0;entryDy=0;entryPerimeter=0;endArrow=none;endFill=0;" parent="1" source="2lP4dWBcIdroYwDRo1nt-83" target="2lP4dWBcIdroYwDRo1nt-90" edge="1">
          <mxGeometry relative="1" as="geometry" />
        </mxCell>
        <mxCell id="2lP4dWBcIdroYwDRo1nt-92" style="edgeStyle=orthogonalEdgeStyle;rounded=0;orthogonalLoop=1;jettySize=auto;html=1;exitX=0;exitY=0.5;exitDx=0;exitDy=0;entryX=0;entryY=0.75;entryDx=0;entryDy=0;endArrow=none;endFill=0;" parent="1" source="2lP4dWBcIdroYwDRo1nt-4" target="2lP4dWBcIdroYwDRo1nt-86" edge="1">
          <mxGeometry relative="1" as="geometry">
            <Array as="points">
              <mxPoint x="90" y="1025" />
              <mxPoint x="90" y="1063" />
            </Array>
          </mxGeometry>
        </mxCell>
        <mxCell id="2lP4dWBcIdroYwDRo1nt-93" value="4&#39;b0001" style="text;html=1;align=center;verticalAlign=middle;resizable=0;points=[];autosize=1;strokeColor=none;fillColor=none;fontSize=7;" parent="1" vertex="1">
          <mxGeometry x="175" y="960" width="50" height="20" as="geometry" />
        </mxCell>
        <mxCell id="2lP4dWBcIdroYwDRo1nt-94" value="&lt;div&gt;&amp;nbsp; &amp;nbsp;4&lt;/div&gt;/" style="text;html=1;align=center;verticalAlign=middle;resizable=0;points=[];autosize=1;strokeColor=none;fillColor=none;" parent="1" vertex="1">
          <mxGeometry x="200" y="1023" width="40" height="40" as="geometry" />
        </mxCell>
        <mxCell id="2lP4dWBcIdroYwDRo1nt-95" value="&lt;div&gt;&amp;nbsp; &amp;nbsp;1&lt;/div&gt;/" style="text;html=1;align=center;verticalAlign=middle;resizable=0;points=[];autosize=1;strokeColor=none;fillColor=none;" parent="1" vertex="1">
          <mxGeometry x="60" y="998" width="40" height="40" as="geometry" />
        </mxCell>
        <mxCell id="2lP4dWBcIdroYwDRo1nt-96" value="&lt;div&gt;&amp;nbsp; &amp;nbsp;4&lt;/div&gt;/" style="text;html=1;align=center;verticalAlign=middle;resizable=0;points=[];autosize=1;strokeColor=none;fillColor=none;" parent="1" vertex="1">
          <mxGeometry x="100" y="962" width="40" height="40" as="geometry" />
        </mxCell>
        <mxCell id="2lP4dWBcIdroYwDRo1nt-97" value="new_clk" style="text;html=1;align=center;verticalAlign=middle;resizable=0;points=[];autosize=1;strokeColor=none;fillColor=none;fontSize=8;" parent="1" vertex="1">
          <mxGeometry x="150" y="1115" width="50" height="20" as="geometry" />
        </mxCell>
        <mxCell id="GbEI2QZW7-A1Ck1bYFuP-149" value="" style="group" vertex="1" connectable="0" parent="1">
          <mxGeometry x="37" y="150" width="184" height="115" as="geometry" />
        </mxCell>
        <mxCell id="GbEI2QZW7-A1Ck1bYFuP-150" value="" style="endArrow=none;html=1;rounded=0;" edge="1" parent="GbEI2QZW7-A1Ck1bYFuP-149">
          <mxGeometry width="50" height="50" relative="1" as="geometry">
            <mxPoint x="8.5" y="50" as="sourcePoint" />
            <mxPoint x="58.5" y="50" as="targetPoint" />
          </mxGeometry>
        </mxCell>
        <mxCell id="GbEI2QZW7-A1Ck1bYFuP-151" value="enable" style="text;html=1;align=center;verticalAlign=middle;resizable=0;points=[];autosize=1;strokeColor=none;fillColor=none;fontSize=8;container=0;" vertex="1" parent="GbEI2QZW7-A1Ck1bYFuP-149">
          <mxGeometry x="5" y="50" width="50" height="20" as="geometry" />
        </mxCell>
        <mxCell id="GbEI2QZW7-A1Ck1bYFuP-152" value="" style="endArrow=none;html=1;rounded=0;" edge="1" parent="GbEI2QZW7-A1Ck1bYFuP-149">
          <mxGeometry width="50" height="50" relative="1" as="geometry">
            <mxPoint x="79" y="110" as="sourcePoint" />
            <mxPoint x="79" y="80" as="targetPoint" />
          </mxGeometry>
        </mxCell>
        <mxCell id="GbEI2QZW7-A1Ck1bYFuP-153" value="rst" style="text;html=1;align=center;verticalAlign=middle;resizable=0;points=[];autosize=1;strokeColor=none;fillColor=none;fontSize=8;rotation=270;container=0;" vertex="1" parent="GbEI2QZW7-A1Ck1bYFuP-149">
          <mxGeometry x="54" y="90" width="30" height="20" as="geometry" />
        </mxCell>
        <mxCell id="GbEI2QZW7-A1Ck1bYFuP-154" value="" style="endArrow=none;html=1;rounded=0;" edge="1" parent="GbEI2QZW7-A1Ck1bYFuP-149">
          <mxGeometry width="50" height="50" relative="1" as="geometry">
            <mxPoint x="9" y="29.75999999999999" as="sourcePoint" />
            <mxPoint x="59" y="29.75999999999999" as="targetPoint" />
          </mxGeometry>
        </mxCell>
        <mxCell id="GbEI2QZW7-A1Ck1bYFuP-155" value="ACTV_SIG" style="text;html=1;align=center;verticalAlign=middle;resizable=0;points=[];autosize=1;strokeColor=none;fillColor=none;fontSize=8;container=0;" vertex="1" parent="GbEI2QZW7-A1Ck1bYFuP-149">
          <mxGeometry y="10" width="60" height="20" as="geometry" />
        </mxCell>
        <mxCell id="GbEI2QZW7-A1Ck1bYFuP-156" value="" style="endArrow=none;html=1;rounded=0;" edge="1" parent="GbEI2QZW7-A1Ck1bYFuP-149">
          <mxGeometry width="50" height="50" relative="1" as="geometry">
            <mxPoint x="139" y="30" as="sourcePoint" />
            <mxPoint x="169" y="30" as="targetPoint" />
          </mxGeometry>
        </mxCell>
        <mxCell id="GbEI2QZW7-A1Ck1bYFuP-157" value="" style="endArrow=none;html=1;rounded=0;" edge="1" parent="GbEI2QZW7-A1Ck1bYFuP-149">
          <mxGeometry width="50" height="50" relative="1" as="geometry">
            <mxPoint x="139" y="50" as="sourcePoint" />
            <mxPoint x="169" y="50" as="targetPoint" />
          </mxGeometry>
        </mxCell>
        <mxCell id="GbEI2QZW7-A1Ck1bYFuP-158" value="hsync" style="text;html=1;align=center;verticalAlign=middle;resizable=0;points=[];autosize=1;strokeColor=none;fillColor=none;fontSize=8;container=0;" vertex="1" parent="GbEI2QZW7-A1Ck1bYFuP-149">
          <mxGeometry x="144" y="10" width="40" height="20" as="geometry" />
        </mxCell>
        <mxCell id="GbEI2QZW7-A1Ck1bYFuP-159" value="hdisp" style="text;html=1;align=center;verticalAlign=middle;resizable=0;points=[];autosize=1;strokeColor=none;fillColor=none;fontSize=8;container=0;" vertex="1" parent="GbEI2QZW7-A1Ck1bYFuP-149">
          <mxGeometry x="139" y="50" width="40" height="20" as="geometry" />
        </mxCell>
        <mxCell id="GbEI2QZW7-A1Ck1bYFuP-160" value="HSyncFSM" style="rounded=0;whiteSpace=wrap;html=1;container=0;" vertex="1" parent="GbEI2QZW7-A1Ck1bYFuP-149">
          <mxGeometry x="59" width="80" height="80" as="geometry" />
        </mxCell>
        <mxCell id="GbEI2QZW7-A1Ck1bYFuP-161" value="new_clk" style="text;html=1;align=center;verticalAlign=middle;resizable=0;points=[];autosize=1;strokeColor=none;fillColor=none;fontSize=8;container=0;" vertex="1" parent="GbEI2QZW7-A1Ck1bYFuP-149">
          <mxGeometry x="74" y="80" width="50" height="20" as="geometry" />
        </mxCell>
        <mxCell id="GbEI2QZW7-A1Ck1bYFuP-162" value="" style="verticalLabelPosition=bottom;shadow=0;dashed=0;align=center;html=1;verticalAlign=top;shape=mxgraph.electrical.logic_gates.buffer2;direction=north;movable=1;resizable=1;rotatable=1;deletable=1;editable=1;locked=0;connectable=1;container=0;" vertex="1" parent="GbEI2QZW7-A1Ck1bYFuP-149">
          <mxGeometry x="96.5" y="70" width="5" height="15" as="geometry" />
        </mxCell>
        <mxCell id="GbEI2QZW7-A1Ck1bYFuP-163" value="" style="group" vertex="1" connectable="0" parent="1">
          <mxGeometry x="30" y="325" width="184" height="115" as="geometry" />
        </mxCell>
        <mxCell id="GbEI2QZW7-A1Ck1bYFuP-164" value="" style="endArrow=none;html=1;rounded=0;" edge="1" parent="GbEI2QZW7-A1Ck1bYFuP-163">
          <mxGeometry width="50" height="50" relative="1" as="geometry">
            <mxPoint x="8.5" y="50" as="sourcePoint" />
            <mxPoint x="58.5" y="50" as="targetPoint" />
          </mxGeometry>
        </mxCell>
        <mxCell id="GbEI2QZW7-A1Ck1bYFuP-165" value="enable" style="text;html=1;align=center;verticalAlign=middle;resizable=0;points=[];autosize=1;strokeColor=none;fillColor=none;fontSize=8;container=0;" vertex="1" parent="GbEI2QZW7-A1Ck1bYFuP-163">
          <mxGeometry x="5" y="50" width="50" height="20" as="geometry" />
        </mxCell>
        <mxCell id="GbEI2QZW7-A1Ck1bYFuP-166" value="" style="endArrow=none;html=1;rounded=0;" edge="1" parent="GbEI2QZW7-A1Ck1bYFuP-163">
          <mxGeometry width="50" height="50" relative="1" as="geometry">
            <mxPoint x="79" y="110" as="sourcePoint" />
            <mxPoint x="79" y="80" as="targetPoint" />
          </mxGeometry>
        </mxCell>
        <mxCell id="GbEI2QZW7-A1Ck1bYFuP-167" value="rst" style="text;html=1;align=center;verticalAlign=middle;resizable=0;points=[];autosize=1;strokeColor=none;fillColor=none;fontSize=8;rotation=270;container=0;" vertex="1" parent="GbEI2QZW7-A1Ck1bYFuP-163">
          <mxGeometry x="54" y="90" width="30" height="20" as="geometry" />
        </mxCell>
        <mxCell id="GbEI2QZW7-A1Ck1bYFuP-168" value="" style="endArrow=none;html=1;rounded=0;" edge="1" parent="GbEI2QZW7-A1Ck1bYFuP-163">
          <mxGeometry width="50" height="50" relative="1" as="geometry">
            <mxPoint x="9" y="29.75999999999999" as="sourcePoint" />
            <mxPoint x="59" y="29.75999999999999" as="targetPoint" />
          </mxGeometry>
        </mxCell>
        <mxCell id="GbEI2QZW7-A1Ck1bYFuP-169" value="ACTV_SIG" style="text;html=1;align=center;verticalAlign=middle;resizable=0;points=[];autosize=1;strokeColor=none;fillColor=none;fontSize=8;container=0;" vertex="1" parent="GbEI2QZW7-A1Ck1bYFuP-163">
          <mxGeometry y="10" width="60" height="20" as="geometry" />
        </mxCell>
        <mxCell id="GbEI2QZW7-A1Ck1bYFuP-170" value="" style="endArrow=none;html=1;rounded=0;" edge="1" parent="GbEI2QZW7-A1Ck1bYFuP-163">
          <mxGeometry width="50" height="50" relative="1" as="geometry">
            <mxPoint x="139" y="30" as="sourcePoint" />
            <mxPoint x="169" y="30" as="targetPoint" />
          </mxGeometry>
        </mxCell>
        <mxCell id="GbEI2QZW7-A1Ck1bYFuP-171" value="" style="endArrow=none;html=1;rounded=0;" edge="1" parent="GbEI2QZW7-A1Ck1bYFuP-163">
          <mxGeometry width="50" height="50" relative="1" as="geometry">
            <mxPoint x="139" y="50" as="sourcePoint" />
            <mxPoint x="169" y="50" as="targetPoint" />
          </mxGeometry>
        </mxCell>
        <mxCell id="GbEI2QZW7-A1Ck1bYFuP-172" value="vsync" style="text;html=1;align=center;verticalAlign=middle;resizable=0;points=[];autosize=1;strokeColor=none;fillColor=none;fontSize=8;container=0;" vertex="1" parent="GbEI2QZW7-A1Ck1bYFuP-163">
          <mxGeometry x="144" y="10" width="40" height="20" as="geometry" />
        </mxCell>
        <mxCell id="GbEI2QZW7-A1Ck1bYFuP-173" value="vdisp" style="text;html=1;align=center;verticalAlign=middle;resizable=0;points=[];autosize=1;strokeColor=none;fillColor=none;fontSize=8;container=0;" vertex="1" parent="GbEI2QZW7-A1Ck1bYFuP-163">
          <mxGeometry x="139" y="50" width="40" height="20" as="geometry" />
        </mxCell>
        <mxCell id="GbEI2QZW7-A1Ck1bYFuP-174" value="VSyncFSM" style="rounded=0;whiteSpace=wrap;html=1;container=0;" vertex="1" parent="GbEI2QZW7-A1Ck1bYFuP-163">
          <mxGeometry x="59" width="80" height="80" as="geometry" />
        </mxCell>
        <mxCell id="GbEI2QZW7-A1Ck1bYFuP-175" value="new_clk" style="text;html=1;align=center;verticalAlign=middle;resizable=0;points=[];autosize=1;strokeColor=none;fillColor=none;fontSize=8;container=0;" vertex="1" parent="GbEI2QZW7-A1Ck1bYFuP-163">
          <mxGeometry x="74" y="80" width="50" height="20" as="geometry" />
        </mxCell>
        <mxCell id="GbEI2QZW7-A1Ck1bYFuP-176" value="" style="verticalLabelPosition=bottom;shadow=0;dashed=0;align=center;html=1;verticalAlign=top;shape=mxgraph.electrical.logic_gates.buffer2;direction=north;movable=1;resizable=1;rotatable=1;deletable=1;editable=1;locked=0;connectable=1;container=0;" vertex="1" parent="GbEI2QZW7-A1Ck1bYFuP-163">
          <mxGeometry x="96.5" y="70" width="5" height="15" as="geometry" />
        </mxCell>
        <mxCell id="GbEI2QZW7-A1Ck1bYFuP-177" value="" style="endArrow=none;html=1;rounded=0;" edge="1" parent="GbEI2QZW7-A1Ck1bYFuP-163">
          <mxGeometry width="50" height="50" relative="1" as="geometry">
            <mxPoint x="169" y="49.889999999999986" as="sourcePoint" />
            <mxPoint x="189" y="49.889999999999986" as="targetPoint" />
          </mxGeometry>
        </mxCell>
        <mxCell id="GbEI2QZW7-A1Ck1bYFuP-178" value=". . ." style="text;html=1;align=center;verticalAlign=middle;resizable=0;points=[];autosize=1;strokeColor=none;fillColor=none;rotation=270;" vertex="1" parent="GbEI2QZW7-A1Ck1bYFuP-163">
          <mxGeometry x="144" y="-5" width="40" height="30" as="geometry" />
        </mxCell>
        <mxCell id="GbEI2QZW7-A1Ck1bYFuP-179" value="" style="group" vertex="1" connectable="0" parent="1">
          <mxGeometry x="244" y="240" width="175.5" height="115" as="geometry" />
        </mxCell>
        <mxCell id="GbEI2QZW7-A1Ck1bYFuP-180" value="" style="endArrow=none;html=1;rounded=0;" edge="1" parent="GbEI2QZW7-A1Ck1bYFuP-179">
          <mxGeometry width="50" height="50" relative="1" as="geometry">
            <mxPoint y="50" as="sourcePoint" />
            <mxPoint x="50" y="50" as="targetPoint" />
          </mxGeometry>
        </mxCell>
        <mxCell id="GbEI2QZW7-A1Ck1bYFuP-181" value="vdisp" style="text;html=1;align=center;verticalAlign=middle;resizable=0;points=[];autosize=1;strokeColor=none;fillColor=none;fontSize=8;container=0;" vertex="1" parent="GbEI2QZW7-A1Ck1bYFuP-179">
          <mxGeometry x="1.5" y="50" width="40" height="20" as="geometry" />
        </mxCell>
        <mxCell id="GbEI2QZW7-A1Ck1bYFuP-182" value="" style="endArrow=none;html=1;rounded=0;" edge="1" parent="GbEI2QZW7-A1Ck1bYFuP-179">
          <mxGeometry width="50" height="50" relative="1" as="geometry">
            <mxPoint x="70.5" y="110" as="sourcePoint" />
            <mxPoint x="70.5" y="80" as="targetPoint" />
          </mxGeometry>
        </mxCell>
        <mxCell id="GbEI2QZW7-A1Ck1bYFuP-183" value="rst" style="text;html=1;align=center;verticalAlign=middle;resizable=0;points=[];autosize=1;strokeColor=none;fillColor=none;fontSize=8;rotation=270;container=0;" vertex="1" parent="GbEI2QZW7-A1Ck1bYFuP-179">
          <mxGeometry x="45.5" y="90" width="30" height="20" as="geometry" />
        </mxCell>
        <mxCell id="GbEI2QZW7-A1Ck1bYFuP-184" value="" style="endArrow=none;html=1;rounded=0;" edge="1" parent="GbEI2QZW7-A1Ck1bYFuP-179">
          <mxGeometry width="50" height="50" relative="1" as="geometry">
            <mxPoint x="0.5" y="29.75999999999999" as="sourcePoint" />
            <mxPoint x="50.5" y="29.75999999999999" as="targetPoint" />
          </mxGeometry>
        </mxCell>
        <mxCell id="GbEI2QZW7-A1Ck1bYFuP-185" value="hdisp" style="text;html=1;align=center;verticalAlign=middle;resizable=0;points=[];autosize=1;strokeColor=none;fillColor=none;fontSize=8;container=0;" vertex="1" parent="GbEI2QZW7-A1Ck1bYFuP-179">
          <mxGeometry x="1.5" y="10" width="40" height="20" as="geometry" />
        </mxCell>
        <mxCell id="GbEI2QZW7-A1Ck1bYFuP-186" value="" style="endArrow=none;html=1;rounded=0;" edge="1" parent="GbEI2QZW7-A1Ck1bYFuP-179">
          <mxGeometry width="50" height="50" relative="1" as="geometry">
            <mxPoint x="130.5" y="30" as="sourcePoint" />
            <mxPoint x="160.5" y="30" as="targetPoint" />
          </mxGeometry>
        </mxCell>
        <mxCell id="GbEI2QZW7-A1Ck1bYFuP-187" value="" style="endArrow=none;html=1;rounded=0;" edge="1" parent="GbEI2QZW7-A1Ck1bYFuP-179">
          <mxGeometry width="50" height="50" relative="1" as="geometry">
            <mxPoint x="130.5" y="50" as="sourcePoint" />
            <mxPoint x="160.5" y="50" as="targetPoint" />
          </mxGeometry>
        </mxCell>
        <mxCell id="GbEI2QZW7-A1Ck1bYFuP-188" value="xPixl" style="text;html=1;align=center;verticalAlign=middle;resizable=0;points=[];autosize=1;strokeColor=none;fillColor=none;fontSize=8;container=0;" vertex="1" parent="GbEI2QZW7-A1Ck1bYFuP-179">
          <mxGeometry x="135.5" y="10" width="40" height="20" as="geometry" />
        </mxCell>
        <mxCell id="GbEI2QZW7-A1Ck1bYFuP-189" value="yPxl" style="text;html=1;align=center;verticalAlign=middle;resizable=0;points=[];autosize=1;strokeColor=none;fillColor=none;fontSize=8;container=0;" vertex="1" parent="GbEI2QZW7-A1Ck1bYFuP-179">
          <mxGeometry x="130.5" y="50" width="40" height="20" as="geometry" />
        </mxCell>
        <mxCell id="GbEI2QZW7-A1Ck1bYFuP-190" value="PixelGen" style="rounded=0;whiteSpace=wrap;html=1;container=0;" vertex="1" parent="GbEI2QZW7-A1Ck1bYFuP-179">
          <mxGeometry x="50.5" width="80" height="80" as="geometry" />
        </mxCell>
        <mxCell id="GbEI2QZW7-A1Ck1bYFuP-191" value="new_clk" style="text;html=1;align=center;verticalAlign=middle;resizable=0;points=[];autosize=1;strokeColor=none;fillColor=none;fontSize=8;container=0;" vertex="1" parent="GbEI2QZW7-A1Ck1bYFuP-179">
          <mxGeometry x="65.5" y="80" width="50" height="20" as="geometry" />
        </mxCell>
        <mxCell id="GbEI2QZW7-A1Ck1bYFuP-192" value="" style="verticalLabelPosition=bottom;shadow=0;dashed=0;align=center;html=1;verticalAlign=top;shape=mxgraph.electrical.logic_gates.buffer2;direction=north;movable=1;resizable=1;rotatable=1;deletable=1;editable=1;locked=0;connectable=1;container=0;" vertex="1" parent="GbEI2QZW7-A1Ck1bYFuP-179">
          <mxGeometry x="88" y="70" width="5" height="15" as="geometry" />
        </mxCell>
        <mxCell id="GbEI2QZW7-A1Ck1bYFuP-193" value="" style="endArrow=none;html=1;rounded=0;" edge="1" parent="1">
          <mxGeometry width="50" height="50" relative="1" as="geometry">
            <mxPoint x="229" y="200" as="sourcePoint" />
            <mxPoint x="229" y="270" as="targetPoint" />
          </mxGeometry>
        </mxCell>
        <mxCell id="GbEI2QZW7-A1Ck1bYFuP-194" value="" style="endArrow=none;html=1;rounded=0;" edge="1" parent="1">
          <mxGeometry width="50" height="50" relative="1" as="geometry">
            <mxPoint x="229" y="270" as="sourcePoint" />
            <mxPoint x="249" y="270" as="targetPoint" />
          </mxGeometry>
        </mxCell>
        <mxCell id="GbEI2QZW7-A1Ck1bYFuP-195" value="" style="endArrow=none;html=1;rounded=0;" edge="1" parent="1">
          <mxGeometry width="50" height="50" relative="1" as="geometry">
            <mxPoint x="219" y="375" as="sourcePoint" />
            <mxPoint x="219" y="290" as="targetPoint" />
          </mxGeometry>
        </mxCell>
        <mxCell id="GbEI2QZW7-A1Ck1bYFuP-196" value="" style="endArrow=none;html=1;rounded=0;" edge="1" parent="1">
          <mxGeometry width="50" height="50" relative="1" as="geometry">
            <mxPoint x="206" y="200" as="sourcePoint" />
            <mxPoint x="229" y="200" as="targetPoint" />
          </mxGeometry>
        </mxCell>
        <mxCell id="GbEI2QZW7-A1Ck1bYFuP-197" value="" style="endArrow=none;html=1;rounded=0;" edge="1" parent="1">
          <mxGeometry width="50" height="50" relative="1" as="geometry">
            <mxPoint x="219" y="290" as="sourcePoint" />
            <mxPoint x="249" y="290" as="targetPoint" />
          </mxGeometry>
        </mxCell>
        <mxCell id="GbEI2QZW7-A1Ck1bYFuP-198" value=". . ." style="text;html=1;align=center;verticalAlign=middle;resizable=0;points=[];autosize=1;strokeColor=none;fillColor=none;" vertex="1" parent="1">
          <mxGeometry x="200" y="162" width="40" height="30" as="geometry" />
        </mxCell>
        <mxCell id="GbEI2QZW7-A1Ck1bYFuP-199" value="" style="group" vertex="1" connectable="0" parent="1">
          <mxGeometry x="409" y="248" width="187.8300000000001" height="115" as="geometry" />
        </mxCell>
        <mxCell id="GbEI2QZW7-A1Ck1bYFuP-200" value="" style="endArrow=none;html=1;rounded=0;" edge="1" parent="GbEI2QZW7-A1Ck1bYFuP-199">
          <mxGeometry width="50" height="50" relative="1" as="geometry">
            <mxPoint x="3.5" y="65" as="sourcePoint" />
            <mxPoint x="53.50000000000006" y="65" as="targetPoint" />
          </mxGeometry>
        </mxCell>
        <mxCell id="GbEI2QZW7-A1Ck1bYFuP-201" value="yPxl" style="text;html=1;align=center;verticalAlign=middle;resizable=0;points=[];autosize=1;strokeColor=none;fillColor=none;fontSize=8;container=0;" vertex="1" parent="GbEI2QZW7-A1Ck1bYFuP-199">
          <mxGeometry x="0.8299999999999841" y="25" width="40" height="20" as="geometry" />
        </mxCell>
        <mxCell id="GbEI2QZW7-A1Ck1bYFuP-202" value="&lt;div&gt;&amp;nbsp; &amp;nbsp;3&lt;/div&gt;/" style="text;html=1;align=center;verticalAlign=middle;resizable=0;points=[];autosize=1;strokeColor=none;fillColor=none;container=0;" vertex="1" parent="GbEI2QZW7-A1Ck1bYFuP-199">
          <mxGeometry x="129.82999999999998" y="2" width="40" height="40" as="geometry" />
        </mxCell>
        <mxCell id="GbEI2QZW7-A1Ck1bYFuP-203" value="rgbVal" style="text;html=1;align=center;verticalAlign=middle;resizable=0;points=[];autosize=1;strokeColor=none;fillColor=none;fontSize=8;container=0;" vertex="1" parent="GbEI2QZW7-A1Ck1bYFuP-199">
          <mxGeometry x="137.8300000000001" y="27.5" width="50" height="20" as="geometry" />
        </mxCell>
        <mxCell id="GbEI2QZW7-A1Ck1bYFuP-204" value="enable" style="text;html=1;align=center;verticalAlign=middle;resizable=0;points=[];autosize=1;strokeColor=none;fillColor=none;fontSize=8;container=0;" vertex="1" parent="GbEI2QZW7-A1Ck1bYFuP-199">
          <mxGeometry y="65" width="50" height="20" as="geometry" />
        </mxCell>
        <mxCell id="GbEI2QZW7-A1Ck1bYFuP-205" value="" style="endArrow=none;html=1;rounded=0;" edge="1" parent="GbEI2QZW7-A1Ck1bYFuP-199">
          <mxGeometry width="50" height="50" relative="1" as="geometry">
            <mxPoint x="74.00000000000006" y="110" as="sourcePoint" />
            <mxPoint x="74.00000000000006" y="80" as="targetPoint" />
          </mxGeometry>
        </mxCell>
        <mxCell id="GbEI2QZW7-A1Ck1bYFuP-206" value="rst" style="text;html=1;align=center;verticalAlign=middle;resizable=0;points=[];autosize=1;strokeColor=none;fillColor=none;fontSize=8;rotation=270;container=0;" vertex="1" parent="GbEI2QZW7-A1Ck1bYFuP-199">
          <mxGeometry x="49.00000000000006" y="90" width="30" height="20" as="geometry" />
        </mxCell>
        <mxCell id="GbEI2QZW7-A1Ck1bYFuP-207" value="" style="endArrow=none;html=1;rounded=0;" edge="1" parent="GbEI2QZW7-A1Ck1bYFuP-199">
          <mxGeometry width="50" height="50" relative="1" as="geometry">
            <mxPoint x="4" y="44.75999999999999" as="sourcePoint" />
            <mxPoint x="54.00000000000006" y="44.75999999999999" as="targetPoint" />
          </mxGeometry>
        </mxCell>
        <mxCell id="GbEI2QZW7-A1Ck1bYFuP-208" value="" style="endArrow=none;html=1;rounded=0;" edge="1" parent="GbEI2QZW7-A1Ck1bYFuP-199">
          <mxGeometry width="50" height="50" relative="1" as="geometry">
            <mxPoint x="134.00000000000006" y="30" as="sourcePoint" />
            <mxPoint x="164.00000000000006" y="30" as="targetPoint" />
          </mxGeometry>
        </mxCell>
        <mxCell id="GbEI2QZW7-A1Ck1bYFuP-209" value="" style="endArrow=none;html=1;rounded=0;" edge="1" parent="GbEI2QZW7-A1Ck1bYFuP-199">
          <mxGeometry width="50" height="50" relative="1" as="geometry">
            <mxPoint x="134.00000000000006" y="50" as="sourcePoint" />
            <mxPoint x="164.00000000000006" y="50" as="targetPoint" />
          </mxGeometry>
        </mxCell>
        <mxCell id="GbEI2QZW7-A1Ck1bYFuP-210" value="valid" style="text;html=1;align=center;verticalAlign=middle;resizable=0;points=[];autosize=1;strokeColor=none;fillColor=none;fontSize=8;container=0;" vertex="1" parent="GbEI2QZW7-A1Ck1bYFuP-199">
          <mxGeometry x="134.00000000000006" y="50" width="40" height="20" as="geometry" />
        </mxCell>
        <mxCell id="GbEI2QZW7-A1Ck1bYFuP-211" value="PAPU" style="rounded=0;whiteSpace=wrap;html=1;container=0;" vertex="1" parent="GbEI2QZW7-A1Ck1bYFuP-199">
          <mxGeometry x="54.00000000000006" width="80" height="80" as="geometry" />
        </mxCell>
        <mxCell id="GbEI2QZW7-A1Ck1bYFuP-212" value="new_clk" style="text;html=1;align=center;verticalAlign=middle;resizable=0;points=[];autosize=1;strokeColor=none;fillColor=none;fontSize=8;container=0;" vertex="1" parent="GbEI2QZW7-A1Ck1bYFuP-199">
          <mxGeometry x="69.00000000000006" y="80" width="50" height="20" as="geometry" />
        </mxCell>
        <mxCell id="GbEI2QZW7-A1Ck1bYFuP-213" value="" style="verticalLabelPosition=bottom;shadow=0;dashed=0;align=center;html=1;verticalAlign=top;shape=mxgraph.electrical.logic_gates.buffer2;direction=north;movable=1;resizable=1;rotatable=1;deletable=1;editable=1;locked=0;connectable=1;container=0;" vertex="1" parent="GbEI2QZW7-A1Ck1bYFuP-199">
          <mxGeometry x="91.50000000000006" y="70" width="5" height="15" as="geometry" />
        </mxCell>
        <mxCell id="GbEI2QZW7-A1Ck1bYFuP-214" value="" style="endArrow=none;html=1;rounded=0;" edge="1" parent="GbEI2QZW7-A1Ck1bYFuP-199">
          <mxGeometry width="50" height="50" relative="1" as="geometry">
            <mxPoint x="4" y="20" as="sourcePoint" />
            <mxPoint x="54.00000000000006" y="20" as="targetPoint" />
          </mxGeometry>
        </mxCell>
        <mxCell id="GbEI2QZW7-A1Ck1bYFuP-215" value="xPixl" style="text;html=1;align=center;verticalAlign=middle;resizable=0;points=[];autosize=1;strokeColor=none;fillColor=none;fontSize=8;container=0;" vertex="1" parent="GbEI2QZW7-A1Ck1bYFuP-199">
          <mxGeometry x="3.5" width="40" height="20" as="geometry" />
        </mxCell>
        <mxCell id="GbEI2QZW7-A1Ck1bYFuP-216" value="Blank" style="whiteSpace=wrap;html=1;aspect=fixed;" vertex="1" parent="1">
          <mxGeometry x="623.87" y="248" width="80" height="80" as="geometry" />
        </mxCell>
        <mxCell id="GbEI2QZW7-A1Ck1bYFuP-217" value="" style="endArrow=none;html=1;rounded=0;" edge="1" parent="1">
          <mxGeometry width="50" height="50" relative="1" as="geometry">
            <mxPoint x="649" y="380" as="sourcePoint" />
            <mxPoint x="649" y="330" as="targetPoint" />
          </mxGeometry>
        </mxCell>
        <mxCell id="GbEI2QZW7-A1Ck1bYFuP-218" value="" style="endArrow=none;html=1;rounded=0;" edge="1" parent="1">
          <mxGeometry width="50" height="50" relative="1" as="geometry">
            <mxPoint x="679.59" y="378" as="sourcePoint" />
            <mxPoint x="679.59" y="328" as="targetPoint" />
          </mxGeometry>
        </mxCell>
        <mxCell id="GbEI2QZW7-A1Ck1bYFuP-219" value="&lt;div&gt;&amp;nbsp; &amp;nbsp;3&lt;/div&gt;/" style="text;html=1;align=center;verticalAlign=middle;resizable=0;points=[];autosize=1;strokeColor=none;fillColor=none;container=0;" vertex="1" parent="1">
          <mxGeometry x="589.9999999999999" y="248" width="40" height="40" as="geometry" />
        </mxCell>
        <mxCell id="GbEI2QZW7-A1Ck1bYFuP-220" value="" style="endArrow=none;html=1;rounded=0;" edge="1" parent="1">
          <mxGeometry width="50" height="50" relative="1" as="geometry">
            <mxPoint x="594.17" y="276" as="sourcePoint" />
            <mxPoint x="624.17" y="276" as="targetPoint" />
          </mxGeometry>
        </mxCell>
        <mxCell id="GbEI2QZW7-A1Ck1bYFuP-221" value="" style="endArrow=none;html=1;rounded=0;" edge="1" parent="1">
          <mxGeometry width="50" height="50" relative="1" as="geometry">
            <mxPoint x="594.17" y="296" as="sourcePoint" />
            <mxPoint x="624.17" y="296" as="targetPoint" />
          </mxGeometry>
        </mxCell>
        <mxCell id="GbEI2QZW7-A1Ck1bYFuP-222" value="valid" style="text;html=1;align=center;verticalAlign=middle;resizable=0;points=[];autosize=1;strokeColor=none;fillColor=none;fontSize=8;container=0;" vertex="1" parent="1">
          <mxGeometry x="594.17" y="296" width="40" height="20" as="geometry" />
        </mxCell>
        <mxCell id="GbEI2QZW7-A1Ck1bYFuP-223" value="&lt;div&gt;&amp;nbsp; &amp;nbsp;3&lt;/div&gt;/" style="text;html=1;align=center;verticalAlign=middle;resizable=0;points=[];autosize=1;strokeColor=none;fillColor=none;container=0;" vertex="1" parent="1">
          <mxGeometry x="698.9999999999999" y="256" width="40" height="40" as="geometry" />
        </mxCell>
        <mxCell id="GbEI2QZW7-A1Ck1bYFuP-224" value="" style="endArrow=none;html=1;rounded=0;" edge="1" parent="1">
          <mxGeometry width="50" height="50" relative="1" as="geometry">
            <mxPoint x="703.17" y="284" as="sourcePoint" />
            <mxPoint x="733.17" y="284" as="targetPoint" />
          </mxGeometry>
        </mxCell>
        <mxCell id="GbEI2QZW7-A1Ck1bYFuP-225" value="hdisp" style="text;html=1;align=center;verticalAlign=middle;resizable=0;points=[];autosize=1;strokeColor=none;fillColor=none;fontSize=8;container=0;" vertex="1" parent="1">
          <mxGeometry x="613" y="343" width="40" height="20" as="geometry" />
        </mxCell>
        <mxCell id="GbEI2QZW7-A1Ck1bYFuP-226" value="vdisp" style="text;html=1;align=center;verticalAlign=middle;resizable=0;points=[];autosize=1;strokeColor=none;fillColor=none;fontSize=8;container=0;" vertex="1" parent="1">
          <mxGeometry x="674" y="343" width="40" height="20" as="geometry" />
        </mxCell>
        <mxCell id="GbEI2QZW7-A1Ck1bYFuP-227" value="" style="ellipse;whiteSpace=wrap;html=1;aspect=fixed;" vertex="1" parent="1">
          <mxGeometry x="184" y="650" width="50" height="50" as="geometry" />
        </mxCell>
        <mxCell id="GbEI2QZW7-A1Ck1bYFuP-228" value="" style="ellipse;whiteSpace=wrap;html=1;aspect=fixed;" vertex="1" parent="1">
          <mxGeometry x="299" y="520" width="50" height="50" as="geometry" />
        </mxCell>
        <mxCell id="GbEI2QZW7-A1Ck1bYFuP-229" value="" style="ellipse;whiteSpace=wrap;html=1;aspect=fixed;" vertex="1" parent="1">
          <mxGeometry x="449" y="640" width="50" height="50" as="geometry" />
        </mxCell>
        <mxCell id="GbEI2QZW7-A1Ck1bYFuP-230" value="" style="ellipse;whiteSpace=wrap;html=1;aspect=fixed;" vertex="1" parent="1">
          <mxGeometry x="334" y="770" width="50" height="50" as="geometry" />
        </mxCell>
        <mxCell id="GbEI2QZW7-A1Ck1bYFuP-231" value="" style="endArrow=none;html=1;rounded=0;entryX=0;entryY=0.5;entryDx=0;entryDy=0;curved=1;" edge="1" parent="1" target="GbEI2QZW7-A1Ck1bYFuP-228">
          <mxGeometry width="50" height="50" relative="1" as="geometry">
            <mxPoint x="209" y="650" as="sourcePoint" />
            <mxPoint x="259" y="600" as="targetPoint" />
            <Array as="points">
              <mxPoint x="229" y="570" />
            </Array>
          </mxGeometry>
        </mxCell>
        <mxCell id="GbEI2QZW7-A1Ck1bYFuP-232" value="" style="endArrow=none;html=1;rounded=0;curved=1;exitX=1;exitY=0.5;exitDx=0;exitDy=0;" edge="1" parent="1" source="GbEI2QZW7-A1Ck1bYFuP-228" target="GbEI2QZW7-A1Ck1bYFuP-229">
          <mxGeometry width="50" height="50" relative="1" as="geometry">
            <mxPoint x="219" y="660" as="sourcePoint" />
            <mxPoint x="309" y="555" as="targetPoint" />
            <Array as="points">
              <mxPoint x="399" y="550" />
              <mxPoint x="429" y="570" />
              <mxPoint x="449" y="600" />
            </Array>
          </mxGeometry>
        </mxCell>
        <mxCell id="GbEI2QZW7-A1Ck1bYFuP-233" value="" style="endArrow=none;html=1;rounded=0;entryX=0.334;entryY=0.992;entryDx=0;entryDy=0;curved=1;entryPerimeter=0;" edge="1" parent="1" target="GbEI2QZW7-A1Ck1bYFuP-227">
          <mxGeometry width="50" height="50" relative="1" as="geometry">
            <mxPoint x="329" y="800" as="sourcePoint" />
            <mxPoint x="219" y="700" as="targetPoint" />
            <Array as="points">
              <mxPoint x="209" y="780" />
            </Array>
          </mxGeometry>
        </mxCell>
        <mxCell id="GbEI2QZW7-A1Ck1bYFuP-234" value="" style="endArrow=none;html=1;rounded=0;entryX=0.948;entryY=0.647;entryDx=0;entryDy=0;curved=1;exitX=0.5;exitY=1;exitDx=0;exitDy=0;entryPerimeter=0;" edge="1" parent="1" source="GbEI2QZW7-A1Ck1bYFuP-229" target="GbEI2QZW7-A1Ck1bYFuP-230">
          <mxGeometry width="50" height="50" relative="1" as="geometry">
            <mxPoint x="229" y="670" as="sourcePoint" />
            <mxPoint x="319" y="565" as="targetPoint" />
            <Array as="points">
              <mxPoint x="469" y="780" />
            </Array>
          </mxGeometry>
        </mxCell>
        <mxCell id="GbEI2QZW7-A1Ck1bYFuP-235" value="SIG_phase" style="text;html=1;align=center;verticalAlign=middle;resizable=0;points=[];autosize=1;strokeColor=none;fillColor=none;" vertex="1" parent="1">
          <mxGeometry x="119" y="628" width="80" height="30" as="geometry" />
        </mxCell>
        <mxCell id="GbEI2QZW7-A1Ck1bYFuP-236" value="back_porch" style="text;html=1;align=center;verticalAlign=middle;resizable=0;points=[];autosize=1;strokeColor=none;fillColor=none;" vertex="1" parent="1">
          <mxGeometry x="254" y="488" width="90" height="30" as="geometry" />
        </mxCell>
        <mxCell id="GbEI2QZW7-A1Ck1bYFuP-237" value="Displaying" style="text;html=1;align=center;verticalAlign=middle;resizable=0;points=[];autosize=1;strokeColor=none;fillColor=none;" vertex="1" parent="1">
          <mxGeometry x="494" y="650" width="80" height="30" as="geometry" />
        </mxCell>
        <mxCell id="GbEI2QZW7-A1Ck1bYFuP-238" value="front_porch" style="text;html=1;align=center;verticalAlign=middle;resizable=0;points=[];autosize=1;strokeColor=none;fillColor=none;" vertex="1" parent="1">
          <mxGeometry x="369" y="818" width="80" height="30" as="geometry" />
        </mxCell>
        <mxCell id="GbEI2QZW7-A1Ck1bYFuP-239" value="" style="endArrow=none;html=1;rounded=0;curved=1;exitX=0.251;exitY=0.937;exitDx=0;exitDy=0;exitPerimeter=0;entryX=0;entryY=0.5;entryDx=0;entryDy=0;" edge="1" parent="1" source="GbEI2QZW7-A1Ck1bYFuP-227" target="GbEI2QZW7-A1Ck1bYFuP-227">
          <mxGeometry width="50" height="50" relative="1" as="geometry">
            <mxPoint x="339" y="810" as="sourcePoint" />
            <mxPoint x="179" y="675" as="targetPoint" />
            <Array as="points">
              <mxPoint x="139" y="720" />
            </Array>
          </mxGeometry>
        </mxCell>
        <mxCell id="GbEI2QZW7-A1Ck1bYFuP-240" value="" style="endArrow=none;html=1;rounded=0;curved=1;exitX=0.251;exitY=0.937;exitDx=0;exitDy=0;exitPerimeter=0;entryX=0;entryY=0.5;entryDx=0;entryDy=0;" edge="1" parent="1">
          <mxGeometry width="50" height="50" relative="1" as="geometry">
            <mxPoint x="317" y="572" as="sourcePoint" />
            <mxPoint x="304" y="550" as="targetPoint" />
            <Array as="points">
              <mxPoint x="279" y="610" />
            </Array>
          </mxGeometry>
        </mxCell>
        <mxCell id="GbEI2QZW7-A1Ck1bYFuP-241" value="" style="endArrow=none;html=1;rounded=0;curved=1;exitX=0.251;exitY=0.937;exitDx=0;exitDy=0;exitPerimeter=0;entryX=0;entryY=0.5;entryDx=0;entryDy=0;" edge="1" parent="1">
          <mxGeometry width="50" height="50" relative="1" as="geometry">
            <mxPoint x="462" y="682" as="sourcePoint" />
            <mxPoint x="449" y="660" as="targetPoint" />
            <Array as="points">
              <mxPoint x="424" y="720" />
            </Array>
          </mxGeometry>
        </mxCell>
        <mxCell id="GbEI2QZW7-A1Ck1bYFuP-242" value="" style="endArrow=none;html=1;rounded=0;curved=1;exitX=0.5;exitY=1;exitDx=0;exitDy=0;exitPerimeter=0;" edge="1" parent="1" source="GbEI2QZW7-A1Ck1bYFuP-230">
          <mxGeometry width="50" height="50" relative="1" as="geometry">
            <mxPoint x="354" y="825" as="sourcePoint" />
            <mxPoint x="339" y="803" as="targetPoint" />
            <Array as="points">
              <mxPoint x="316" y="863" />
            </Array>
          </mxGeometry>
        </mxCell>
        <mxCell id="GbEI2QZW7-A1Ck1bYFuP-243" value="max != count" style="text;html=1;align=center;verticalAlign=middle;resizable=0;points=[];autosize=1;strokeColor=none;fillColor=none;" vertex="1" parent="1">
          <mxGeometry x="74" y="690" width="90" height="30" as="geometry" />
        </mxCell>
        <mxCell id="GbEI2QZW7-A1Ck1bYFuP-244" value="max != count" style="text;html=1;align=center;verticalAlign=middle;resizable=0;points=[];autosize=1;strokeColor=none;fillColor=none;" vertex="1" parent="1">
          <mxGeometry x="266" y="591" width="90" height="30" as="geometry" />
        </mxCell>
        <mxCell id="GbEI2QZW7-A1Ck1bYFuP-245" value="max != count" style="text;html=1;align=center;verticalAlign=middle;resizable=0;points=[];autosize=1;strokeColor=none;fillColor=none;" vertex="1" parent="1">
          <mxGeometry x="334.91999999999996" y="690" width="90" height="30" as="geometry" />
        </mxCell>
        <mxCell id="GbEI2QZW7-A1Ck1bYFuP-246" value="max != count" style="text;html=1;align=center;verticalAlign=middle;resizable=0;points=[];autosize=1;strokeColor=none;fillColor=none;" vertex="1" parent="1">
          <mxGeometry x="229" y="830" width="90" height="30" as="geometry" />
        </mxCell>
        <mxCell id="GbEI2QZW7-A1Ck1bYFuP-247" value="max == count" style="text;html=1;align=center;verticalAlign=middle;resizable=0;points=[];autosize=1;strokeColor=none;fillColor=none;" vertex="1" parent="1">
          <mxGeometry x="139" y="548" width="100" height="30" as="geometry" />
        </mxCell>
        <mxCell id="GbEI2QZW7-A1Ck1bYFuP-248" value="max == count" style="text;html=1;align=center;verticalAlign=middle;resizable=0;points=[];autosize=1;strokeColor=none;fillColor=none;" vertex="1" parent="1">
          <mxGeometry x="384" y="520" width="100" height="30" as="geometry" />
        </mxCell>
        <mxCell id="GbEI2QZW7-A1Ck1bYFuP-249" value="max == count" style="text;html=1;align=center;verticalAlign=middle;resizable=0;points=[];autosize=1;strokeColor=none;fillColor=none;" vertex="1" parent="1">
          <mxGeometry x="440" y="760" width="100" height="30" as="geometry" />
        </mxCell>
        <mxCell id="GbEI2QZW7-A1Ck1bYFuP-250" value="max == count" style="text;html=1;align=center;verticalAlign=middle;resizable=0;points=[];autosize=1;strokeColor=none;fillColor=none;" vertex="1" parent="1">
          <mxGeometry x="149" y="760" width="100" height="30" as="geometry" />
        </mxCell>
        <mxCell id="GbEI2QZW7-A1Ck1bYFuP-251" value="MOORE FSM" style="text;html=1;align=center;verticalAlign=middle;resizable=0;points=[];autosize=1;strokeColor=none;fillColor=none;" vertex="1" parent="1">
          <mxGeometry x="249" y="440" width="100" height="30" as="geometry" />
        </mxCell>
        <mxCell id="GbEI2QZW7-A1Ck1bYFuP-252" value="Counter #1" style="rounded=0;whiteSpace=wrap;html=1;" vertex="1" parent="1">
          <mxGeometry x="624.92" y="608" width="80" height="80" as="geometry" />
        </mxCell>
        <mxCell id="GbEI2QZW7-A1Ck1bYFuP-253" value="new_clk" style="text;html=1;align=center;verticalAlign=middle;resizable=0;points=[];autosize=1;strokeColor=none;fillColor=none;fontSize=8;" vertex="1" parent="1">
          <mxGeometry x="639.92" y="688" width="50" height="20" as="geometry" />
        </mxCell>
        <mxCell id="GbEI2QZW7-A1Ck1bYFuP-254" value="" style="verticalLabelPosition=bottom;shadow=0;dashed=0;align=center;html=1;verticalAlign=top;shape=mxgraph.electrical.logic_gates.buffer2;direction=north;movable=1;resizable=1;rotatable=1;deletable=1;editable=1;locked=0;connectable=1;" vertex="1" parent="1">
          <mxGeometry x="662.42" y="678" width="5" height="15" as="geometry" />
        </mxCell>
        <mxCell id="GbEI2QZW7-A1Ck1bYFuP-255" value="&lt;font color=&quot;#ff7661&quot;&gt;Module Counter #1&lt;/font&gt;" style="text;html=1;align=center;verticalAlign=middle;resizable=0;points=[];autosize=1;strokeColor=none;fillColor=none;" vertex="1" parent="1">
          <mxGeometry x="599.92" y="578" width="130" height="30" as="geometry" />
        </mxCell>
        <mxCell id="GbEI2QZW7-A1Ck1bYFuP-256" value="" style="endArrow=none;html=1;rounded=0;" edge="1" parent="1">
          <mxGeometry width="50" height="50" relative="1" as="geometry">
            <mxPoint x="709" y="650" as="sourcePoint" />
            <mxPoint x="769" y="650" as="targetPoint" />
          </mxGeometry>
        </mxCell>
        <mxCell id="GbEI2QZW7-A1Ck1bYFuP-257" value="count" style="text;html=1;align=center;verticalAlign=middle;resizable=0;points=[];autosize=1;strokeColor=none;fillColor=none;" vertex="1" parent="1">
          <mxGeometry x="710.5" y="620" width="50" height="30" as="geometry" />
        </mxCell>
      </root>
    </mxGraphModel>
  </diagram>
</mxfile>
